<mxfile host="app.diagrams.net" modified="2024-03-21T05:56:49.359Z" agent="Mozilla/5.0 (Windows NT 10.0; Win64; x64) AppleWebKit/537.36 (KHTML, like Gecko) Chrome/122.0.0.0 Safari/537.36" etag="SUFW80CedHWZuyHZYiyH" version="24.0.7" type="device">
  <diagram name="Page-1" id="0QLVTyBH8GF_LAYRk_Er">
    <mxGraphModel dx="2441" dy="320" grid="1" gridSize="10" guides="1" tooltips="1" connect="1" arrows="1" fold="1" page="0" pageScale="1" pageWidth="827" pageHeight="1169" math="0" shadow="0">
      <root>
        <mxCell id="0" />
        <mxCell id="1" parent="0" />
        <mxCell id="eZL25ekCRlPv5GF-uzIq-1" value="" style="image;aspect=fixed;perimeter=ellipsePerimeter;html=1;align=center;shadow=0;dashed=0;fontColor=#4277BB;labelBackgroundColor=default;fontSize=12;spacingTop=3;image=img/lib/ibm/users/sensor.svg;" vertex="1" parent="1">
          <mxGeometry x="-880" y="1520" width="40" height="40" as="geometry" />
        </mxCell>
        <mxCell id="eZL25ekCRlPv5GF-uzIq-2" value="" style="image;aspect=fixed;perimeter=ellipsePerimeter;html=1;align=center;shadow=0;dashed=0;fontColor=#4277BB;labelBackgroundColor=default;fontSize=12;spacingTop=3;image=img/lib/ibm/users/sensor.svg;" vertex="1" parent="1">
          <mxGeometry x="-1000" y="1400" width="40" height="40" as="geometry" />
        </mxCell>
        <mxCell id="eZL25ekCRlPv5GF-uzIq-4" value="" style="image;aspect=fixed;perimeter=ellipsePerimeter;html=1;align=center;shadow=0;dashed=0;fontColor=#4277BB;labelBackgroundColor=default;fontSize=12;spacingTop=3;image=img/lib/ibm/users/sensor.svg;" vertex="1" parent="1">
          <mxGeometry x="-1000" y="1640" width="40" height="40" as="geometry" />
        </mxCell>
        <mxCell id="eZL25ekCRlPv5GF-uzIq-5" value="" style="image;aspect=fixed;perimeter=ellipsePerimeter;html=1;align=center;shadow=0;dashed=0;fontColor=#4277BB;labelBackgroundColor=default;fontSize=12;spacingTop=3;image=img/lib/ibm/users/sensor.svg;" vertex="1" parent="1">
          <mxGeometry x="-760" y="1360" width="40" height="40" as="geometry" />
        </mxCell>
        <mxCell id="eZL25ekCRlPv5GF-uzIq-6" value="" style="image;aspect=fixed;perimeter=ellipsePerimeter;html=1;align=center;shadow=0;dashed=0;fontColor=#4277BB;labelBackgroundColor=default;fontSize=12;spacingTop=3;image=img/lib/ibm/users/sensor.svg;" vertex="1" parent="1">
          <mxGeometry x="-840" y="1720" width="40" height="40" as="geometry" />
        </mxCell>
        <mxCell id="eZL25ekCRlPv5GF-uzIq-7" value="" style="image;aspect=fixed;perimeter=ellipsePerimeter;html=1;align=center;shadow=0;dashed=0;fontColor=#4277BB;labelBackgroundColor=default;fontSize=12;spacingTop=3;image=img/lib/ibm/users/sensor.svg;" vertex="1" parent="1">
          <mxGeometry x="-720" y="1520" width="40" height="40" as="geometry" />
        </mxCell>
        <mxCell id="eZL25ekCRlPv5GF-uzIq-8" value="" style="image;aspect=fixed;perimeter=ellipsePerimeter;html=1;align=center;shadow=0;dashed=0;fontColor=#4277BB;labelBackgroundColor=default;fontSize=12;spacingTop=3;image=img/lib/ibm/users/sensor.svg;" vertex="1" parent="1">
          <mxGeometry x="-600" y="1600" width="40" height="40" as="geometry" />
        </mxCell>
        <mxCell id="eZL25ekCRlPv5GF-uzIq-9" value="" style="image;aspect=fixed;perimeter=ellipsePerimeter;html=1;align=center;shadow=0;dashed=0;fontColor=#4277BB;labelBackgroundColor=default;fontSize=12;spacingTop=3;image=img/lib/ibm/users/sensor.svg;" vertex="1" parent="1">
          <mxGeometry x="-680" y="1720" width="40" height="40" as="geometry" />
        </mxCell>
        <mxCell id="eZL25ekCRlPv5GF-uzIq-10" value="" style="image;aspect=fixed;perimeter=ellipsePerimeter;html=1;align=center;shadow=0;dashed=0;fontColor=#4277BB;labelBackgroundColor=default;fontSize=12;spacingTop=3;image=img/lib/ibm/users/sensor.svg;" vertex="1" parent="1">
          <mxGeometry x="-600" y="1400" width="40" height="40" as="geometry" />
        </mxCell>
        <mxCell id="eZL25ekCRlPv5GF-uzIq-13" value="&lt;font face=&quot;Helvetica&quot; style=&quot;font-size: 20px;&quot;&gt;Sensor Node&lt;/font&gt;" style="text;html=1;align=center;verticalAlign=middle;whiteSpace=wrap;rounded=0;" vertex="1" parent="1">
          <mxGeometry x="-1047.5" y="1450" width="135" height="30" as="geometry" />
        </mxCell>
        <mxCell id="eZL25ekCRlPv5GF-uzIq-15" value="" style="group" vertex="1" connectable="0" parent="1">
          <mxGeometry x="-470" y="1200" width="135" height="185" as="geometry" />
        </mxCell>
        <mxCell id="eZL25ekCRlPv5GF-uzIq-12" value="" style="shape=mxgraph.cisco.wireless.antenna;html=1;pointerEvents=1;dashed=0;fillColor=#036897;strokeColor=#ffffff;strokeWidth=2;verticalLabelPosition=bottom;verticalAlign=top;align=center;outlineConnect=0;" vertex="1" parent="eZL25ekCRlPv5GF-uzIq-15">
          <mxGeometry x="30.399999999999977" width="88" height="104" as="geometry" />
        </mxCell>
        <mxCell id="eZL25ekCRlPv5GF-uzIq-11" value="" style="image;points=[];aspect=fixed;html=1;align=center;shadow=0;dashed=0;image=img/lib/allied_telesis/buildings/Building_Cluster.svg;" vertex="1" parent="eZL25ekCRlPv5GF-uzIq-15">
          <mxGeometry x="13.799999999999955" y="39" width="121.2" height="111" as="geometry" />
        </mxCell>
        <mxCell id="eZL25ekCRlPv5GF-uzIq-14" value="&lt;font face=&quot;Helvetica&quot; style=&quot;font-size: 20px;&quot;&gt;Base Station&lt;/font&gt;" style="text;html=1;align=center;verticalAlign=middle;whiteSpace=wrap;rounded=0;" vertex="1" parent="eZL25ekCRlPv5GF-uzIq-15">
          <mxGeometry y="155" width="135" height="30" as="geometry" />
        </mxCell>
      </root>
    </mxGraphModel>
  </diagram>
</mxfile>
